<svg width="31" height="30" viewBox="0 0 31 30" fill="none" xmlns="http://www.w3.org/2000/svg">
<path d="M30.5 15C30.5 6.71573 23.7843 0 15.5 0C7.21573 0 0.5 6.71573 0.5 15C0.5 23.2843 7.21573 30 15.5 30C23.7843 30 30.5 23.2843 30.5 15Z" fill="#C9D4FC"/>
<path d="M10.5 8.75H20.5C20.8452 8.75 21.125 9.02982 21.125 9.375V21.4225C21.1252 21.649 20.8918 21.8005 20.685 21.7081L15.5 19.3938L10.315 21.7075C10.1084 21.7999 9.87522 21.6488 9.875 21.4225V9.375C9.875 9.02982 10.1548 8.75 10.5 8.75ZM19.875 19.9781V10H11.125V19.9781L15.5 18.0256L19.875 19.9781ZM15.5 15.9375L13.6631 16.9031L14.0138 14.8581L12.5281 13.4094L14.5819 13.1106L15.5 11.25L16.4188 13.1106L18.4719 13.4094L16.9862 14.8581L17.3362 16.9031L15.5 15.9375Z" fill="white"/>
</svg>
