<svg width="31" height="30" viewBox="0 0 31 30" fill="none" xmlns="http://www.w3.org/2000/svg">
<g id="&#236;&#149;&#132;&#236;&#157;&#180;&#236;&#189;&#152; &#234;&#183;&#184;&#235;&#163;&#185; 4">
<path id="Vector 4-2" d="M30.25 15C30.25 6.71573 23.5343 0 15.25 0C6.96573 0 0.25 6.71573 0.25 15C0.25 23.2843 6.96573 30 15.25 30C23.5343 30 30.25 23.2843 30.25 15Z" fill="#C9D4FC"/>
<path id="Vector 4-1" d="M12.9583 18.811H19.6611L20.8155 19.74V12.7744H21.4702C21.8319 12.7744 22.125 13.0747 22.125 13.4451V22.5L19.208 20.1524H13.6131C13.2515 20.1524 12.9583 19.8521 12.9583 19.4817V18.811ZM11.292 17.4695L8.375 19.8171V9.42074C8.375 9.0503 8.66814 8.75 9.02975 8.75H18.8512C19.2128 8.75 19.5059 9.0503 19.5059 9.42074V17.4695H11.292Z" fill="white"/>
</g>
</svg>
