<svg width="246" height="48" viewBox="0 0 246 48" fill="none" xmlns="http://www.w3.org/2000/svg">
<rect width="246" height="48" rx="6" fill="#FEE500"/>
<g clip-path="url(#clip0_162_36)">
<path opacity="0.902" fill-rule="evenodd" clip-rule="evenodd" d="M30 15.9438C25.29 15.9438 21 19.7298 21 22.9328C21 25.3328 22.558 27.4498 24.931 28.7078L23.933 32.3738C23.844 32.6988 24.213 32.9568 24.496 32.7698L28.873 29.8648C29.242 29.9008 29.618 29.9218 30 29.9218C34.97 29.9218 39 26.7928 39 22.9328C39 19.7298 34.97 15.9438 30 15.9438Z" fill="black"/>
</g>
<path d="M60.48 18.616H67.216V20.232C67.216 20.872 67.1093 21.512 66.896 22.152C66.6827 22.792 66.4053 23.4107 66.064 24.008C65.7227 24.6053 65.3333 25.176 64.896 25.72C64.4587 26.2533 64.016 26.744 63.568 27.192C63.1307 27.6293 62.704 28.0133 62.288 28.344C61.872 28.664 61.5093 28.9093 61.2 29.08V26.488C61.712 26.1147 62.1653 25.6987 62.56 25.24C62.9547 24.7707 63.3067 24.3173 63.616 23.88H60.672V22.232H64.496C64.6133 22.0293 64.704 21.7787 64.768 21.48C64.8427 21.1707 64.8853 20.8827 64.896 20.616H60.48V18.616ZM70.928 21.832H72.784V23.896H70.928V30.808H68.88V17.512H70.928V21.832ZM73.7456 18.616H80.4816V20.232C80.4816 20.872 80.375 21.512 80.1616 22.152C79.9483 22.792 79.671 23.4107 79.3296 24.008C78.9883 24.6053 78.599 25.176 78.1616 25.72C77.7243 26.2533 77.2816 26.744 76.8336 27.192C76.3963 27.6293 75.9696 28.0133 75.5536 28.344C75.1376 28.664 74.775 28.9093 74.4656 29.08V26.488C74.9776 26.1147 75.431 25.6987 75.8256 25.24C76.2203 24.7707 76.5723 24.3173 76.8816 23.88H73.9376V22.232H77.7616C77.879 22.0293 77.9696 21.7787 78.0336 21.48C78.1083 21.1707 78.151 20.8827 78.1616 20.616H73.7456V18.616ZM84.1936 21.832H86.0496V23.896H84.1936V30.808H82.1456V17.512H84.1936V21.832ZM94.5473 18.152C94.9739 18.152 95.3899 18.2107 95.7953 18.328C96.2006 18.4347 96.5526 18.5947 96.8513 18.808C97.1606 19.0107 97.4059 19.2667 97.5873 19.576C97.7793 19.8853 97.8753 20.2373 97.8753 20.632V22.52C97.8753 22.9573 97.7899 23.3467 97.6193 23.688C97.4486 24.0187 97.2193 24.3013 96.9313 24.536C96.6433 24.76 96.3019 24.9307 95.9073 25.048C95.5233 25.1653 95.1179 25.224 94.6913 25.224H91.6353C91.1979 25.224 90.7819 25.1653 90.3873 25.048C90.0033 24.9307 89.6566 24.7653 89.3473 24.552C89.0486 24.3387 88.8086 24.0773 88.6273 23.768C88.4566 23.448 88.3713 23.0853 88.3713 22.68C88.3713 22.5413 88.3659 22.3813 88.3553 22.2C88.3553 22.008 88.3553 21.816 88.3553 21.624C88.3553 21.432 88.3553 21.2453 88.3553 21.064C88.3659 20.872 88.3819 20.7067 88.4033 20.568C88.4459 20.216 88.5633 19.896 88.7553 19.608C88.9579 19.3093 89.2033 19.0533 89.4913 18.84C89.7899 18.6267 90.1259 18.4613 90.4993 18.344C90.8726 18.216 91.2513 18.152 91.6353 18.152H94.5473ZM99.2353 27.512V29.336H87.0113V27.512H92.1633V25.8H94.2113V27.512H99.2353ZM94.0513 23.496C94.2326 23.496 94.4353 23.4853 94.6593 23.464C94.8833 23.4427 95.0913 23.3947 95.2833 23.32C95.4753 23.2347 95.6353 23.1173 95.7633 22.968C95.8913 22.808 95.9553 22.5947 95.9553 22.328V21.4C95.9553 21.144 95.8966 20.9307 95.7793 20.76C95.6726 20.5787 95.5286 20.4347 95.3472 20.328C95.1659 20.2107 94.9579 20.1307 94.7233 20.088C94.4993 20.0347 94.2646 20.008 94.0193 20.008H92.4193C92.2166 20.008 92.0086 20.024 91.7953 20.056C91.5926 20.0773 91.4006 20.1307 91.2193 20.216C91.0379 20.2907 90.8779 20.408 90.7393 20.568C90.6006 20.728 90.4939 20.936 90.4193 21.192C90.3979 21.2667 90.3766 21.3573 90.3553 21.464C90.3446 21.5707 90.3393 21.6827 90.3393 21.8C90.3393 21.9173 90.3446 22.0347 90.3553 22.152C90.3766 22.2587 90.3979 22.3493 90.4193 22.424C90.5153 22.7333 90.6913 22.9893 90.9473 23.192C91.2139 23.3947 91.6299 23.496 92.1953 23.496H94.0513ZM105.429 21.192H113.013V20.104H105.429V18.264H115.205V22.664H107.621V23.704H115.205V25.176H105.429V21.192ZM116.389 27.528V29.352H104.261V27.528H109.237V25.848H111.269V27.528H116.389ZM127.819 18.28V20.072C127.819 21.1387 127.755 22.0667 127.627 22.856C127.499 23.6347 127.36 24.2907 127.211 24.824C127.03 25.4427 126.832 25.9707 126.619 26.408H124.299C124.651 25.8213 124.912 25.2133 125.083 24.584C125.264 23.9547 125.387 23.352 125.451 22.776C125.526 22.2 125.558 21.6773 125.547 21.208C125.536 20.7387 125.52 20.3653 125.499 20.088H118.459V18.28H127.819ZM129.067 29.336H117.355V27.4H129.067V29.336ZM134.523 17.592C134.822 17.592 135.104 17.6507 135.371 17.768C135.648 17.8853 135.888 18.0507 136.091 18.264C136.304 18.4667 136.47 18.712 136.587 19C136.704 19.2773 136.763 19.576 136.763 19.896V22.2C136.763 22.52 136.704 22.824 136.587 23.112C136.47 23.3893 136.304 23.6347 136.091 23.848C135.888 24.0507 135.648 24.216 135.371 24.344C135.104 24.4613 134.822 24.52 134.523 24.52H132.347C132.038 24.52 131.744 24.4613 131.467 24.344C131.19 24.216 130.944 24.0507 130.731 23.848C130.518 23.6347 130.347 23.3893 130.219 23.112C130.091 22.824 130.027 22.52 130.027 22.2V19.896C130.027 19.576 130.091 19.2773 130.219 19C130.347 18.712 130.518 18.4667 130.731 18.264C130.944 18.0507 131.19 17.8853 131.467 17.768C131.744 17.6507 132.038 17.592 132.347 17.592H134.523ZM140.891 30.632H131.467V26.072H133.659V28.68H140.891V30.632ZM140.891 25.88V17.32H138.763V25.88H140.891ZM134.779 21.736V20.344C134.779 20.0667 134.683 19.8373 134.491 19.656C134.31 19.464 134.08 19.368 133.803 19.368H133.051C132.774 19.368 132.528 19.464 132.315 19.656C132.112 19.8373 132.011 20.0667 132.011 20.344V21.736C132.011 22.024 132.112 22.264 132.315 22.456C132.528 22.6373 132.774 22.728 133.051 22.728H133.803C134.08 22.728 134.31 22.6373 134.491 22.456C134.683 22.264 134.779 22.024 134.779 21.736ZM149.535 18.424C149.951 18.424 150.346 18.488 150.719 18.616C151.092 18.744 151.418 18.9147 151.695 19.128C151.983 19.3413 152.207 19.592 152.367 19.88C152.538 20.1573 152.623 20.4507 152.623 20.76V23C152.623 23.3093 152.538 23.608 152.367 23.896C152.207 24.1733 151.983 24.4187 151.695 24.632C151.418 24.8453 151.092 25.016 150.719 25.144C150.346 25.272 149.951 25.336 149.535 25.336H146.719C146.292 25.336 145.882 25.272 145.487 25.144C145.103 25.016 144.762 24.8453 144.463 24.632C144.175 24.4187 143.946 24.1733 143.775 23.896C143.604 23.608 143.519 23.3093 143.519 23C143.519 22.8613 143.514 22.696 143.503 22.504C143.503 22.3013 143.498 22.0933 143.487 21.88C143.487 21.6667 143.487 21.464 143.487 21.272C143.487 21.0693 143.498 20.8987 143.519 20.76C143.562 20.4293 143.679 20.12 143.871 19.832C144.074 19.544 144.319 19.2987 144.607 19.096C144.906 18.8827 145.236 18.7173 145.599 18.6C145.962 18.4827 146.335 18.424 146.719 18.424H149.535ZM154.287 29.128H141.855V27.496H154.287V29.128ZM150.799 22.584C150.831 22.4027 150.836 22.2 150.815 21.976C150.804 21.752 150.799 21.5493 150.799 21.368C150.799 21.1973 150.73 21.0427 150.591 20.904C150.452 20.7653 150.282 20.648 150.079 20.552C149.876 20.456 149.652 20.3813 149.407 20.328C149.172 20.2747 148.959 20.248 148.767 20.248H147.679C147.487 20.248 147.279 20.264 147.055 20.296C146.831 20.3173 146.618 20.3707 146.415 20.456C146.212 20.5307 146.031 20.6427 145.871 20.792C145.711 20.9413 145.594 21.1387 145.519 21.384C145.498 21.4587 145.482 21.5493 145.471 21.656C145.46 21.7627 145.455 21.8747 145.455 21.992C145.455 22.0987 145.46 22.2053 145.471 22.312C145.482 22.4187 145.498 22.5093 145.519 22.584C145.562 22.744 145.658 22.888 145.807 23.016C145.956 23.144 146.132 23.256 146.335 23.352C146.538 23.4373 146.751 23.5067 146.975 23.56C147.199 23.6133 147.412 23.64 147.615 23.64H148.943C149.135 23.64 149.338 23.6133 149.551 23.56C149.764 23.496 149.956 23.416 150.127 23.32C150.308 23.224 150.458 23.112 150.575 22.984C150.703 22.856 150.778 22.7227 150.799 22.584ZM156.414 21.192H163.998V20.104H156.414V18.264H166.19V22.664H158.606V23.704H166.19V25.176H156.414V21.192ZM167.374 27.528V29.352H155.246V27.528H160.222V25.848H162.254V27.528H167.374ZM183.57 30.792H181.298V17.496H183.57V30.792ZM177.298 18.44H175.09V21.096C175.09 22.152 174.877 23.064 174.45 23.832C174.034 24.5893 173.351 25.208 172.402 25.688V27.832C172.893 27.6293 173.367 27.384 173.826 27.096C174.221 26.8507 174.631 26.5413 175.058 26.168C175.495 25.784 175.869 25.3253 176.178 24.792C176.53 25.3253 176.914 25.784 177.33 26.168C177.757 26.5413 178.151 26.8507 178.514 27.096C178.941 27.384 179.367 27.6293 179.794 27.832V25.672C179.325 25.3733 178.93 25.064 178.61 24.744C178.29 24.4133 178.034 24.0613 177.842 23.688C177.65 23.3147 177.511 22.9147 177.426 22.488C177.341 22.0613 177.298 21.5973 177.298 21.096V18.44ZM192.127 18.152V20.008H189.231C189.38 20.424 189.604 20.808 189.903 21.16C190.202 21.512 190.506 21.816 190.815 22.072C191.167 22.3707 191.546 22.6427 191.951 22.888V24.856C191.482 24.7067 191.039 24.4773 190.623 24.168C190.207 23.848 189.839 23.528 189.519 23.208C189.146 22.8347 188.799 22.4293 188.479 21.992C188.212 22.4933 187.866 22.9253 187.439 23.288C187.012 23.6507 186.596 23.9493 186.191 24.184C185.711 24.4613 185.215 24.6907 184.703 24.872V23.016C185.162 22.792 185.562 22.5467 185.903 22.28C186.244 22.0027 186.532 21.7307 186.767 21.464C187.002 21.1867 187.188 20.9253 187.327 20.68C187.466 20.424 187.572 20.2 187.647 20.008H184.527V18.152H192.127ZM197.007 20.056V21.944H195.199V24.744H193.295V17.32H195.199V20.056H197.007ZM185.631 26.056H195.263V27.88C195.242 28.2747 195.199 28.648 195.135 29C195.071 29.352 194.996 29.6613 194.911 29.928C194.815 30.2373 194.714 30.5253 194.607 30.792H192.639C192.82 30.44 192.959 30.088 193.055 29.736C193.151 29.3947 193.22 29.0853 193.263 28.808C193.306 28.488 193.327 28.1787 193.327 27.88H185.631V26.056ZM205.404 18.984V20.664H204.06C204.306 20.856 204.498 21.096 204.636 21.384C204.786 21.672 204.86 22.008 204.86 22.392V24.728C204.86 25.0587 204.802 25.3733 204.684 25.672C204.578 25.9707 204.423 26.2373 204.22 26.472C204.028 26.696 203.794 26.8773 203.516 27.016C203.25 27.144 202.951 27.208 202.62 27.208H200.652C200.364 27.208 200.082 27.1493 199.804 27.032C199.538 26.904 199.298 26.7333 199.084 26.52C198.871 26.3067 198.7 26.0613 198.572 25.784C198.444 25.496 198.38 25.1867 198.38 24.856V22.392C198.38 22.008 198.471 21.672 198.652 21.384C198.834 21.096 199.063 20.856 199.34 20.664H197.964V18.984H200.54V17.864H202.796V18.984H205.404ZM208.444 21.832H210.3V23.896H208.444V30.808H206.396V17.512H208.444V21.832ZM202.988 24.52V22.776C202.988 22.488 202.903 22.2427 202.732 22.04C202.562 21.8373 202.338 21.736 202.06 21.736H201.324C201.047 21.736 200.796 21.8373 200.572 22.04C200.359 22.2427 200.252 22.488 200.252 22.776V24.488C200.252 24.7653 200.359 24.984 200.572 25.144C200.796 25.304 201.047 25.384 201.324 25.384H202.06C202.338 25.384 202.562 25.3093 202.732 25.16C202.903 25.0107 202.988 24.7973 202.988 24.52ZM211.261 18.536H218.189V20.12C218.136 20.6853 218.008 21.24 217.805 21.784C217.603 22.328 217.352 22.856 217.053 23.368C216.755 23.8693 216.424 24.3547 216.061 24.824C215.699 25.2827 215.331 25.7093 214.957 26.104C214.072 27.032 213.091 27.9013 212.013 28.712V26.04C212.568 25.592 213.069 25.1173 213.517 24.616C213.976 24.1147 214.371 23.6187 214.701 23.128C215.032 22.6373 215.299 22.1733 215.501 21.736C215.704 21.2987 215.837 20.9147 215.901 20.584H211.261V18.536ZM221.949 30.792V17.496H219.837V30.792H221.949Z" fill="black"/>
<defs>
<clipPath id="clip0_162_36">
<rect width="18" height="18" fill="white" transform="translate(21 15)"/>
</clipPath>
</defs>
</svg>
