<svg width="30" height="30" viewBox="0 0 30 30" fill="none" xmlns="http://www.w3.org/2000/svg">
<path d="M30 15C30 6.71573 23.2843 0 15 0C6.71573 0 0 6.71573 0 15C0 23.2843 6.71573 30 15 30C23.2843 30 30 23.2843 30 15Z" fill="#C9D4FC"/>
<path d="M7.5 19.6146C9.29419 22.1415 11.9879 23.75 15.0006 23.75C18.0121 23.75 20.707 22.1428 22.5 19.6146C20.466 17.8199 17.7847 16.8232 15.0006 16.8269C12.2161 16.8229 9.53436 17.8196 7.5 19.6146ZM15.0006 15.6731C17.0256 15.6731 18.6672 14.1233 18.6672 12.2115C18.6672 10.2998 17.0256 8.75 15.0006 8.75C12.9756 8.75 11.334 10.2998 11.334 12.2115C11.334 14.1233 12.9756 15.6731 15.0006 15.6731Z" fill="white"/>
</svg>
