<svg width="246" height="48" viewBox="0 0 246 48" fill="none" xmlns="http://www.w3.org/2000/svg">
<rect width="246" height="48" rx="6" fill="#03C75A"/>
<path d="M33.8833 24.6682L26.8388 14.5H21V33.5H27.1167V23.3302L34.1612 33.5H40V14.5H33.8833V24.6682Z" fill="white"/>
<path d="M61.48 28.136V18.984H63.672V26.216H67.08V28.136H61.48ZM67.896 21.8V17.336H70.024V30.792H67.896V23.896H65.656V21.8H67.896ZM71.256 17.336H73.176V30.792H71.256V17.336ZM79.1923 27.96H76.6003C76.3123 27.96 76.0243 27.912 75.7363 27.816C75.4483 27.7093 75.1816 27.5493 74.9363 27.336C74.7016 27.112 74.5096 26.824 74.3603 26.472C74.2109 26.1093 74.1363 25.672 74.1363 25.16V21.352C74.1363 20.936 74.2003 20.552 74.3283 20.2C74.4669 19.8373 74.6589 19.5227 74.9043 19.256C75.1603 18.9893 75.4696 18.7813 75.8323 18.632C76.1949 18.4827 76.6109 18.408 77.0803 18.408H78.5043C78.9523 18.408 79.3523 18.488 79.7043 18.648C80.0563 18.7973 80.3549 19.0107 80.6003 19.288C80.8563 19.5547 81.0483 19.8693 81.1763 20.232C81.3149 20.5947 81.3843 20.984 81.3843 21.4V25.256C81.3843 25.6613 81.3203 26.0293 81.1923 26.36C81.0749 26.6907 80.9149 26.9787 80.7123 27.224C80.5096 27.4587 80.2749 27.64 80.0083 27.768C79.7416 27.896 79.4696 27.96 79.1923 27.96ZM84.8723 30.808V17.352H82.7283V30.808H84.8723ZM77.4003 26.312H78.2003C78.4029 26.312 78.5736 26.2693 78.7123 26.184C78.8616 26.0987 78.9843 25.992 79.0803 25.864C79.1763 25.7253 79.2456 25.576 79.2883 25.416C79.3416 25.2453 79.3683 25.0853 79.3683 24.936V21.544C79.3683 21.3733 79.3363 21.2133 79.2723 21.064C79.2083 20.904 79.1229 20.7653 79.0163 20.648C78.9203 20.52 78.7976 20.424 78.6483 20.36C78.5096 20.2853 78.3603 20.248 78.2003 20.248H77.4003C77.2403 20.248 77.0856 20.2853 76.9363 20.36C76.7869 20.424 76.6536 20.52 76.5363 20.648C76.4296 20.7653 76.3389 20.904 76.2643 21.064C76.2003 21.2133 76.1683 21.3733 76.1683 21.544V24.936C76.1683 25.4587 76.2696 25.8213 76.4723 26.024C76.6856 26.216 76.9949 26.312 77.4003 26.312ZM90.8269 18.44H92.5549V27.768H86.0269V18.44H87.8829V21.064H90.8269V18.44ZM87.8829 25.688H90.8269V23.144H87.8829V25.688ZM95.4509 17.32H97.5789V30.792H95.4509V23.864H93.0829V21.624H95.4509V17.32ZM103.773 21.192H111.357V20.104H103.773V18.264H113.549V22.664H105.965V23.704H113.549V25.176H103.773V21.192ZM114.733 27.528V29.352H102.605V27.528H107.581V25.848H109.613V27.528H114.733ZM126.163 18.28V20.072C126.163 21.1387 126.099 22.0667 125.971 22.856C125.843 23.6347 125.704 24.2907 125.555 24.824C125.373 25.4427 125.176 25.9707 124.963 26.408H122.643C122.995 25.8213 123.256 25.2133 123.427 24.584C123.608 23.9547 123.731 23.352 123.795 22.776C123.869 22.2 123.901 21.6773 123.891 21.208C123.88 20.7387 123.864 20.3653 123.843 20.088H116.803V18.28H126.163ZM127.411 29.336H115.699V27.4H127.411V29.336ZM132.867 17.592C133.165 17.592 133.448 17.6507 133.715 17.768C133.992 17.8853 134.232 18.0507 134.435 18.264C134.648 18.4667 134.813 18.712 134.931 19C135.048 19.2773 135.107 19.576 135.107 19.896V22.2C135.107 22.52 135.048 22.824 134.931 23.112C134.813 23.3893 134.648 23.6347 134.435 23.848C134.232 24.0507 133.992 24.216 133.715 24.344C133.448 24.4613 133.165 24.52 132.867 24.52H130.691C130.381 24.52 130.088 24.4613 129.811 24.344C129.533 24.216 129.288 24.0507 129.075 23.848C128.861 23.6347 128.691 23.3893 128.563 23.112C128.435 22.824 128.371 22.52 128.371 22.2V19.896C128.371 19.576 128.435 19.2773 128.563 19C128.691 18.712 128.861 18.4667 129.075 18.264C129.288 18.0507 129.533 17.8853 129.811 17.768C130.088 17.6507 130.381 17.592 130.691 17.592H132.867ZM139.235 30.632H129.811V26.072H132.003V28.68H139.235V30.632ZM139.235 25.88V17.32H137.107V25.88H139.235ZM133.123 21.736V20.344C133.123 20.0667 133.027 19.8373 132.835 19.656C132.653 19.464 132.424 19.368 132.147 19.368H131.395C131.117 19.368 130.872 19.464 130.659 19.656C130.456 19.8373 130.355 20.0667 130.355 20.344V21.736C130.355 22.024 130.456 22.264 130.659 22.456C130.872 22.6373 131.117 22.728 131.395 22.728H132.147C132.424 22.728 132.653 22.6373 132.835 22.456C133.027 22.264 133.123 22.024 133.123 21.736ZM147.879 18.424C148.295 18.424 148.689 18.488 149.063 18.616C149.436 18.744 149.761 18.9147 150.039 19.128C150.327 19.3413 150.551 19.592 150.711 19.88C150.881 20.1573 150.967 20.4507 150.967 20.76V23C150.967 23.3093 150.881 23.608 150.711 23.896C150.551 24.1733 150.327 24.4187 150.039 24.632C149.761 24.8453 149.436 25.016 149.063 25.144C148.689 25.272 148.295 25.336 147.879 25.336H145.063C144.636 25.336 144.225 25.272 143.831 25.144C143.447 25.016 143.105 24.8453 142.807 24.632C142.519 24.4187 142.289 24.1733 142.119 23.896C141.948 23.608 141.863 23.3093 141.863 23C141.863 22.8613 141.857 22.696 141.847 22.504C141.847 22.3013 141.841 22.0933 141.831 21.88C141.831 21.6667 141.831 21.464 141.831 21.272C141.831 21.0693 141.841 20.8987 141.863 20.76C141.905 20.4293 142.023 20.12 142.215 19.832C142.417 19.544 142.663 19.2987 142.951 19.096C143.249 18.8827 143.58 18.7173 143.943 18.6C144.305 18.4827 144.679 18.424 145.063 18.424H147.879ZM152.631 29.128H140.199V27.496H152.631V29.128ZM149.143 22.584C149.175 22.4027 149.18 22.2 149.159 21.976C149.148 21.752 149.143 21.5493 149.143 21.368C149.143 21.1973 149.073 21.0427 148.935 20.904C148.796 20.7653 148.625 20.648 148.423 20.552C148.22 20.456 147.996 20.3813 147.751 20.328C147.516 20.2747 147.303 20.248 147.111 20.248H146.023C145.831 20.248 145.623 20.264 145.399 20.296C145.175 20.3173 144.961 20.3707 144.759 20.456C144.556 20.5307 144.375 20.6427 144.215 20.792C144.055 20.9413 143.937 21.1387 143.863 21.384C143.841 21.4587 143.825 21.5493 143.815 21.656C143.804 21.7627 143.799 21.8747 143.799 21.992C143.799 22.0987 143.804 22.2053 143.815 22.312C143.825 22.4187 143.841 22.5093 143.863 22.584C143.905 22.744 144.001 22.888 144.151 23.016C144.3 23.144 144.476 23.256 144.679 23.352C144.881 23.4373 145.095 23.5067 145.319 23.56C145.543 23.6133 145.756 23.64 145.959 23.64H147.287C147.479 23.64 147.681 23.6133 147.895 23.56C148.108 23.496 148.3 23.416 148.471 23.32C148.652 23.224 148.801 23.112 148.919 22.984C149.047 22.856 149.121 22.7227 149.143 22.584ZM154.757 21.192H162.341V20.104H154.757V18.264H164.533V22.664H156.949V23.704H164.533V25.176H154.757V21.192ZM165.717 27.528V29.352H153.589V27.528H158.565V25.848H160.597V27.528H165.717ZM181.914 30.792H179.642V17.496H181.914V30.792ZM175.642 18.44H173.434V21.096C173.434 22.152 173.22 23.064 172.794 23.832C172.378 24.5893 171.695 25.208 170.746 25.688V27.832C171.236 27.6293 171.711 27.384 172.17 27.096C172.564 26.8507 172.975 26.5413 173.402 26.168C173.839 25.784 174.212 25.3253 174.522 24.792C174.874 25.3253 175.258 25.784 175.674 26.168C176.1 26.5413 176.495 26.8507 176.858 27.096C177.284 27.384 177.711 27.6293 178.138 27.832V25.672C177.668 25.3733 177.274 25.064 176.954 24.744C176.634 24.4133 176.378 24.0613 176.186 23.688C175.994 23.3147 175.855 22.9147 175.77 22.488C175.684 22.0613 175.642 21.5973 175.642 21.096V18.44ZM190.471 18.152V20.008H187.575C187.724 20.424 187.948 20.808 188.247 21.16C188.545 21.512 188.849 21.816 189.159 22.072C189.511 22.3707 189.889 22.6427 190.295 22.888V24.856C189.825 24.7067 189.383 24.4773 188.967 24.168C188.551 23.848 188.183 23.528 187.863 23.208C187.489 22.8347 187.143 22.4293 186.823 21.992C186.556 22.4933 186.209 22.9253 185.783 23.288C185.356 23.6507 184.94 23.9493 184.535 24.184C184.055 24.4613 183.559 24.6907 183.047 24.872V23.016C183.505 22.792 183.905 22.5467 184.247 22.28C184.588 22.0027 184.876 21.7307 185.111 21.464C185.345 21.1867 185.532 20.9253 185.671 20.68C185.809 20.424 185.916 20.2 185.991 20.008H182.871V18.152H190.471ZM195.351 20.056V21.944H193.543V24.744H191.639V17.32H193.543V20.056H195.351ZM183.975 26.056H193.607V27.88C193.585 28.2747 193.543 28.648 193.479 29C193.415 29.352 193.34 29.6613 193.255 29.928C193.159 30.2373 193.057 30.5253 192.951 30.792H190.983C191.164 30.44 191.303 30.088 191.399 29.736C191.495 29.3947 191.564 29.0853 191.607 28.808C191.649 28.488 191.671 28.1787 191.671 27.88H183.975V26.056ZM203.748 18.984V20.664H202.404C202.649 20.856 202.841 21.096 202.98 21.384C203.129 21.672 203.204 22.008 203.204 22.392V24.728C203.204 25.0587 203.145 25.3733 203.028 25.672C202.921 25.9707 202.767 26.2373 202.564 26.472C202.372 26.696 202.137 26.8773 201.86 27.016C201.593 27.144 201.295 27.208 200.964 27.208H198.996C198.708 27.208 198.425 27.1493 198.148 27.032C197.881 26.904 197.641 26.7333 197.428 26.52C197.215 26.3067 197.044 26.0613 196.916 25.784C196.788 25.496 196.724 25.1867 196.724 24.856V22.392C196.724 22.008 196.815 21.672 196.996 21.384C197.177 21.096 197.407 20.856 197.684 20.664H196.308V18.984H198.884V17.864H201.14V18.984H203.748ZM206.788 21.832H208.644V23.896H206.788V30.808H204.74V17.512H206.788V21.832ZM201.332 24.52V22.776C201.332 22.488 201.247 22.2427 201.076 22.04C200.905 21.8373 200.681 21.736 200.404 21.736H199.668C199.391 21.736 199.14 21.8373 198.916 22.04C198.703 22.2427 198.596 22.488 198.596 22.776V24.488C198.596 24.7653 198.703 24.984 198.916 25.144C199.14 25.304 199.391 25.384 199.668 25.384H200.404C200.681 25.384 200.905 25.3093 201.076 25.16C201.247 25.0107 201.332 24.7973 201.332 24.52ZM209.605 18.536H216.533V20.12C216.48 20.6853 216.352 21.24 216.149 21.784C215.946 22.328 215.696 22.856 215.397 23.368C215.098 23.8693 214.768 24.3547 214.405 24.824C214.042 25.2827 213.674 25.7093 213.301 26.104C212.416 27.032 211.434 27.9013 210.357 28.712V26.04C210.912 25.592 211.413 25.1173 211.861 24.616C212.32 24.1147 212.714 23.6187 213.045 23.128C213.376 22.6373 213.642 22.1733 213.845 21.736C214.048 21.2987 214.181 20.9147 214.245 20.584H209.605V18.536ZM220.293 30.792V17.496H218.181V30.792H220.293Z" fill="white"/>
</svg>
