<svg width="31" height="30" viewBox="0 0 31 30" fill="none" xmlns="http://www.w3.org/2000/svg">
<g id="&#236;&#149;&#132;&#236;&#157;&#180;&#236;&#189;&#152; &#234;&#183;&#184;&#235;&#163;&#185; 2">
<path id="Vector 2-2" d="M30.75 15C30.75 6.71573 24.0343 0 15.75 0C7.46573 0 0.75 6.71573 0.75 15C0.75 23.2843 7.46573 30 15.75 30C24.0343 30 30.75 23.2843 30.75 15Z" fill="#C9D4FC"/>
<path id="Vector 2-1" d="M18.3749 7.5C20.0244 7.49983 21.2654 9.0028 20.9529 10.6223L20.9416 10.6718C22.278 11.1175 23.1973 12.3458 23.2478 13.7534C23.2984 15.1611 22.4698 16.4522 21.169 16.9928L20.3544 21.873C20.2942 22.2346 19.9814 22.4999 19.6148 22.5H11.8844C11.5177 22.4999 11.2049 22.2346 11.1448 21.873L10.373 17.2455C9.30259 17.1848 8.42369 16.3775 8.27261 15.3162C8.12153 14.2549 8.74023 13.2344 9.75115 12.8775L9.74891 12.75C9.74854 9.44395 13.1944 7.26615 16.1809 8.685C16.6653 7.94503 17.4904 7.49939 18.3749 7.5ZM14.9995 17.25H13.4993V21H14.9995V17.25ZM17.9998 17.25H16.4997V21H17.9998V17.25ZM19.875 15.75C21.0575 15.75 21.9447 14.6691 21.7142 13.5095C21.4837 12.3499 20.2505 11.6904 19.158 12.1425L19.0267 12.2033C18.3072 12.574 17.4233 12.3072 17.0292 11.6003L16.9767 11.4975C16.4872 10.4322 15.4219 9.74961 14.2494 9.74999C12.6427 9.74999 11.3308 11.013 11.2528 12.5753L11.2491 12.723L11.2513 12.8505C11.2622 13.4526 10.9119 14.0028 10.3617 14.2477L10.2492 14.292C9.90538 14.4144 9.69939 14.7663 9.761 15.126C9.82262 15.4857 10.134 15.749 10.499 15.75H19.875Z" fill="white"/>
</g>
</svg>
