<svg width="30" height="30" viewBox="0 0 30 30" fill="none" xmlns="http://www.w3.org/2000/svg">
<g id="&#236;&#149;&#132;&#236;&#157;&#180;&#236;&#189;&#152; &#234;&#183;&#184;&#235;&#163;&#185; 1">
<path id="Vector 1-2" d="M30 15C30 6.71573 23.2843 0 15 0C6.71573 0 0 6.71573 0 15C0 23.2843 6.71573 30 15 30C23.2843 30 30 23.2843 30 15Z" fill="#637FE2"/>
<path id="Vector 1-1" d="M20.625 22.1739H10.5816C9.39295 22.1739 8.42938 21.2104 8.42938 20.0218V8.54349C8.42938 8.14728 8.75057 7.82611 9.14677 7.82611H19.1903C19.5865 7.82611 19.9076 8.14728 19.9076 8.54349V17.1522H22.7772V20.0218C22.7772 21.2104 21.8137 22.1739 20.625 22.1739ZM19.9076 18.587V20.0218C19.9076 20.418 20.2288 20.7391 20.625 20.7391C21.0212 20.7391 21.3424 20.418 21.3424 20.0218V18.587H19.9076ZM11.2989 11.4131V12.8479H17.0381V11.4131H11.2989ZM11.2989 14.2826V15.7174H17.0381V14.2826H11.2989ZM11.2989 17.1522V18.587H14.8859V17.1522H11.2989Z" fill="white"/>
</g>
</svg>
